<!DOCTYPE svg PUBLIC "-//W3C//DTD SVG 1.1//EN" "http://www.w3.org/Graphics/SVG/1.1/DTD/svg11.dtd">
<!-- Uploaded to: SVG Repo, www.svgrepo.com, Transformed by: SVG Repo Mixer Tools -->
<svg fill="#ffffff" width="800px" height="800px" viewBox="0 0 24 24" xmlns="http://www.w3.org/2000/svg" stroke="#ffffff">
<g id="SVGRepo_bgCarrier" stroke-width="0"/>
<g id="SVGRepo_tracerCarrier" stroke-linecap="round" stroke-linejoin="round"/>
<g id="SVGRepo_iconCarrier"> <g data-name="Layer 2"> <g data-name="arrow-forward"> <rect width="24" height="24" transform="rotate(-90 12 12)" opacity="0"/> <path d="M5 13h11.86l-3.63 4.36a1 1 0 0 0 1.54 1.28l5-6a1.19 1.19 0 0 0 .09-.15c0-.05.05-.08.07-.13A1 1 0 0 0 20 12a1 1 0 0 0-.07-.36c0-.05-.05-.08-.07-.13a1.19 1.19 0 0 0-.09-.15l-5-6A1 1 0 0 0 14 5a1 1 0 0 0-.64.23 1 1 0 0 0-.13 1.41L16.86 11H5a1 1 0 0 0 0 2z"/> </g> </g> </g>
</svg>